<?xml version="1.0" standalone="no"?>
<!DOCTYPE svg PUBLIC "-//W3C//DTD SVG 20010904//EN"
 "http://www.w3.org/TR/2001/REC-SVG-20010904/DTD/svg10.dtd">
<svg version="1.0" xmlns="http://www.w3.org/2000/svg"
 width="512.000000pt" height="512.000000pt" viewBox="0 0 512.000000 512.000000"
 preserveAspectRatio="xMidYMid meet">
<metadata>
Created by potrace 1.14, written by Peter Selinger 2001-2017
</metadata>
<g transform="translate(0.000000,512.000000) scale(0.100000,-0.100000)"
fill="#000000" stroke="none">
<path d="M3810 4346 c-3 -2 -43 -7 -90 -11 -47 -4 -87 -8 -90 -10 -3 -2 -37
-6 -75 -10 -39 -4 -73 -9 -76 -11 -4 -2 -31 -7 -60 -10 -30 -4 -128 -22 -219
-41 -91 -18 -176 -36 -190 -39 -14 -3 -33 -7 -42 -10 -9 -3 -26 -7 -37 -9 -37
-8 -50 -12 -396 -99 -187 -46 -384 -94 -439 -106 -54 -12 -107 -24 -117 -26
-76 -17 -204 -42 -249 -49 -19 -3 -46 -7 -60 -10 -40 -7 -81 -13 -140 -20 -30
-3 -62 -8 -70 -10 -62 -15 -499 -26 -580 -13 -25 3 -72 9 -105 12 -90 8 -267
42 -385 74 -58 15 -115 27 -127 26 -56 -4 -107 -16 -131 -31 -41 -25 -92 -75
-92 -90 0 -7 -3 -13 -8 -13 -29 0 -31 -87 -32 -1380 0 -1481 -6 -1378 79
-1460 37 -35 68 -53 147 -82 213 -78 409 -121 659 -143 56 -5 354 -6 400 -1
17 2 66 7 109 10 43 4 88 10 100 12 12 2 48 7 81 10 33 3 63 8 66 10 4 2 31 6
60 10 108 12 397 76 809 179 355 89 477 118 629 150 9 2 49 11 88 19 40 9 85
18 100 20 49 9 167 27 193 31 14 1 48 6 75 10 99 13 111 14 205 21 174 13 465
7 590 -12 87 -13 240 -45 289 -60 30 -8 62 -17 70 -19 9 -2 34 -7 56 -13 78
-17 169 6 230 60 25 22 45 46 45 54 0 8 3 14 8 14 30 0 31 82 29 1405 l-2
1330 -25 45 c-42 75 -103 112 -279 168 -167 54 -183 59 -221 66 -14 2 -63 11
-110 20 -47 8 -103 18 -125 21 -50 8 -539 18 -545 11z m592 -411 c25 -3 90
-17 145 -31 54 -14 117 -31 141 -37 26 -6 42 -16 43 -26 1 -9 2 -98 3 -198 1
-132 -2 -183 -10 -183 -34 0 -148 45 -200 78 -51 34 -134 111 -134 126 0 3
-11 21 -25 41 -33 49 -63 132 -70 195 l-6 52 33 -6 c18 -3 54 -8 80 -11z
m-3927 -405 c28 -6 68 -14 89 -16 22 -3 42 -7 45 -9 4 -2 44 -6 91 -10 73 -6
143 -12 173 -14 14 -1 -3 -62 -36 -131 -72 -150 -233 -263 -397 -277 l-55 -5
1 238 c1 132 2 240 3 242 0 2 9 1 19 -2 9 -3 40 -10 67 -16z m2205 -215 c81
-18 202 -85 275 -152 76 -70 182 -240 201 -323 4 -19 9 -39 11 -45 36 -115 39
-329 5 -455 -66 -247 -220 -434 -421 -511 -69 -26 -87 -30 -179 -33 -228 -9
-446 137 -561 376 -23 47 -44 94 -46 105 -3 10 -13 52 -24 93 -26 104 -22 302
8 415 27 103 98 245 159 316 51 60 142 139 161 139 6 0 11 3 11 8 0 10 106 51
172 67 55 13 166 13 228 0z m2055 -1509 c0 -124 -3 -227 -5 -230 -3 -2 -32 2
-65 10 -33 7 -78 16 -100 19 -22 3 -67 10 -100 15 -33 5 -80 10 -105 11 -25 1
-48 4 -52 6 -11 6 31 111 67 168 60 93 148 160 263 201 106 37 98 56 97 -200z
m-4226 -171 c175 -46 311 -181 366 -361 8 -27 15 -64 15 -81 0 -31 -1 -33 -32
-28 -18 3 -53 7 -78 9 -62 6 -230 43 -320 72 l-75 23 0 191 0 190 35 0 c19 0
59 -7 89 -15z"/>
</g>
</svg>
